M48
INCH
T01C0.0450
T02C0.0400
T03C0.0300
T04C0.0600
T05C0.1181
%
T01
X-003937Y-005905
X-001937Y-005905
X-006889Y+004921
X-004889Y+004921
X-001968Y+004921
X+000031Y+004921
T02
X+005905Y-002889
X+005905Y+001110
X+001047Y+001968
X-002952Y+001968
X+000000Y-003937
X+000000Y+000062
X-002952Y-003937
X-002952Y+000062
X+002952Y-003937
X+002952Y+000062
X+006952Y+001968
X+002952Y+001968
X-006889Y-004905
X-006889Y-005905
X-006889Y-006905
T03
X-006889Y+001047
X-006889Y-002952
X+001168Y-005905
X+001968Y-005905
X+002768Y-005905
T04
X+004921Y-005905
X+006921Y-005905
X+003937Y+004921
X+005937Y+004921
X+008500Y-008000
T05
X-007500Y+008000
M30
